<?xml version="1.0" ?><!DOCTYPE svg  PUBLIC '-//W3C//DTD SVG 1.1 Tiny//EN'  'http://www.w3.org/Graphics/SVG/1.1/DTD/svg11-tiny.dtd'><svg baseProfile="tiny" height="128px" id="Layer_1" overflow="scroll" version="1.1" viewBox="0 0 128 128" width="128px" xml:space="preserve" xmlns="http://www.w3.org/2000/svg" xmlns:xlink="http://www.w3.org/1999/xlink"><g><path d="M76.1,37c0.2-1.1,0.4-2.2,0.4-3.4c0-7.8-5.5-14.1-12.2-14.1c-6.8,0-12.2,6.3-12.2,14.1   c0,1.2,0.1,2.4,0.4,3.5c0.2,5.6,6.7,17.1-0.8,23.3h24.8C68.3,54.7,75.9,42.4,76.1,37" fill="#F1D27A"/><path d="M81.2,60.4H46.8c-1.4,0-2.5,1.1-2.5,2.5v1.2c0,1.3,1.1,2.4,2.4,2.4h5.3v0.9c0,1.1,0.9,2,2,2h2.7V72   c-6.9,2.8-11.8,9.6-11.8,17.5c0,10.4,8.5,18.9,18.9,18.9c10.4,0,18.9-8.5,18.9-18.9c0-7.9-4.9-14.7-11.8-17.5v-2.6h2.7   c1.1,0,2-0.9,2-2v-0.9h5.3c1.3,0,2.4-1.1,2.4-2.4v-1.2C83.7,61.5,82.6,60.4,81.2,60.4z M77.1,89.5c0,7.2-5.9,13.1-13.1,13.1   c-7.2,0-13.1-5.9-13.1-13.1c0-7.2,5.9-13.1,13.1-13.1C71.2,76.5,77.1,82.3,77.1,89.5z" fill="#F7B2B8"/><path d="M61.4,28.3c0,1.7-1.4,3.1-3.1,3.1c-1.7,0-3.1-1.4-3.1-3.1c0-1.7,1.4-3.1,3.1-3.1   C60.1,25.3,61.4,26.6,61.4,28.3" fill="#F2E099"/><path d="M64.2,19.5c0,0-0.1,0-0.1,0v40.9h12.3c-7.9-5.8-0.5-18-0.2-23.4c0.2-1.1,0.4-2.2,0.4-3.4   C76.4,25.8,71,19.5,64.2,19.5" fill="#DEB867"/><path d="M81.2,60.4H64.1v3.9v4.4v4v3.8c7.2,0,13,5.9,13,13.1c0,7.2-5.8,13-13,13.1v5.9c10.4,0,18.9-8.5,18.9-18.9   c0-7.9-4.9-14.7-11.8-17.5v-2.6h2.7c1.1,0,2-0.9,2-2v-0.9h5.3c1.3,0,2.4-1.1,2.4-2.4v-1.2C83.7,61.5,82.6,60.4,81.2,60.4z" fill="#F496A7"/></g></svg>