<?xml version="1.0" ?><!DOCTYPE svg  PUBLIC '-//W3C//DTD SVG 1.1 Tiny//EN'  'http://www.w3.org/Graphics/SVG/1.1/DTD/svg11-tiny.dtd'><svg baseProfile="tiny" height="128px" id="Layer_1" overflow="scroll" version="1.1" viewBox="0 0 128 128" width="128px" xml:space="preserve" xmlns="http://www.w3.org/2000/svg" xmlns:xlink="http://www.w3.org/1999/xlink"><g><path d="M94.9,63.7c-2-2.1-4.7-4-8.1-5.5c-1.4-0.6-2.8-1.2-4.3-1.6c3-3.3,4.8-7.4,4.8-11.8c0-3-0.8-5.9-2.3-8.4   c2.1-1.5,3.4-3.9,3.4-6.6c0-4.5-3.7-8.2-8.2-8.2c-3.5,0-6.4,2.1-7.6,5.2c-2.7-0.9-5.5-1.4-8.6-1.4c-3,0-5.9,0.5-8.6,1.4   c-1.2-3-4.2-5.2-7.6-5.2c-4.5,0-8.2,3.7-8.2,8.2c0,2.7,1.3,5.2,3.4,6.6c-1.5,2.6-2.3,5.4-2.3,8.4c0,4.4,1.8,8.5,4.8,11.8   c-1.5,0.5-3,1-4.3,1.6c-10.5,4.7-12,11.3-12,14.8c0,3.4,2.8,6.2,6.2,6.2c3.4,0,6.2-2.8,6.2-6.2c0-0.2,0.3-0.5,0.7-1   c-0.1,0.8-0.1,1.5-0.1,2.3c0,4.9,1.1,9.5,3.1,13.4c-2.8,3.7-4.3,8-4.3,12.6c0,3.4,2.8,6.2,6.2,6.2c3.4,0,6.2-2.8,6.2-6.2   c0-1,0.2-2,0.5-2.9c3,1.8,6.4,2.9,9.9,2.9c3.6,0,7-1,9.9-2.9c0.3,0.9,0.5,1.9,0.5,2.9c0,3.4,2.8,6.2,6.2,6.2c3.4,0,6.2-2.8,6.2-6.2   c0-4.6-1.5-9-4.3-12.6c2-3.9,3.1-8.5,3.1-13.4c0-0.8,0-1.5-0.1-2.3c0.5,0.5,0.7,0.8,0.8,1c0,3.4,2.8,6.2,6.2,6.2   c3.4,0,6.2-2.8,6.2-6.2C98.9,69.6,97.5,66.4,94.9,63.7z" fill="#F7B2B8"/><path d="M73.9,97.4c0.3,0.9,0.5,1.9,0.5,2.9c0,3.4,2.8,6.2,6.2,6.2c3.4,0,6.2-2.8,6.2-6.2c0-4.6-1.5-9-4.3-12.6   c2-3.9,3.1-8.5,3.1-13.4c0-0.8,0-1.5-0.1-2.3c0.5,0.5,0.7,0.8,0.8,1c0,3.4,2.8,6.2,6.2,6.2c3.4,0,6.2-2.8,6.2-6.2   c0-3.3-1.4-6.5-3.9-9.3c-2-2.1-4.7-4-8.1-5.5c-1.4-0.6-2.8-1.2-4.3-1.6c3-3.3,4.8-7.4,4.8-11.8c0-3-0.8-5.9-2.3-8.4   c2.1-1.5,3.4-3.9,3.4-6.6c0-4.5-3.7-8.2-8.2-8.2c-3.5,0-6.4,2.1-7.6,5.2c-2.7-0.9-5.5-1.4-8.6-1.4v75C67.6,100.3,71,99.2,73.9,97.4   z" fill="#F496A7"/><path d="M93.9,76.7L93.9,76.7c-2,0.7-4.1-0.3-4.7-2.2l0-0.1c-0.7-1.9,0.3-4,2.3-4.7l0.1,0c1.9-0.7,4,0.3,4.7,2.3   l0,0.1C96.9,74,95.8,76.1,93.9,76.7" fill="#F9C7C9"/><path d="M64,50c-9.4,0-17.1,9.1-17.1,20.4c0,11.3,7.7,20.4,17.1,20.4c9.4,0,17.1-9.1,17.1-20.4   C81.1,59.1,73.4,50,64,50" fill="#F9C7C9"/><path d="M81.1,70.4C81.1,59.1,73.4,50,64,50v40.8C73.4,90.8,81.1,81.6,81.1,70.4z" fill="#EAB5B5"/><path d="M33.9,76.7L33.9,76.7c2,0.7,4.1-0.3,4.7-2.2l0-0.1c0.7-1.9-0.3-4-2.3-4.7l-0.1,0c-1.9-0.7-4,0.3-4.7,2.3   l0,0.1C30.9,74,31.9,76.1,33.9,76.7" fill="#F9C7C9"/><path d="M52.4,29.6c0-2.5-2-4.6-4.6-4.6c-2.5,0-4.6,2-4.6,4.6c0,2.5,2,4.6,4.6,4.6C50.4,34.2,52.4,32.2,52.4,29.6" fill="#F9C7C9"/><path d="M84.7,29.6c0-2.5-2-4.6-4.6-4.6c-2.5,0-4.6,2-4.6,4.6c0,2.5,2,4.6,4.6,4.6C82.7,34.2,84.7,32.2,84.7,29.6" fill="#F9C7C9"/><path d="M75.9,52.4c0-4.9-5.3-8.9-11.9-8.9c-6.6,0-11.9,4-11.9,8.9c0,4.9,5.3,8.9,11.9,8.9   C70.6,61.3,75.9,57.3,75.9,52.4" fill="#FDEDE8"/><path d="M64,57.5c5.6,0,10.4-2.9,11.7-6.9c0-0.1-0.1-0.3-0.1-0.4c-1.1,4-5.8,7.1-11.5,7.1c-5.7,0-10.5-3.1-11.5-7.1   c0,0.1-0.1,0.3-0.1,0.4C53.6,54.6,58.4,57.5,64,57.5" fill="#F9C7C9"/><path d="M67.4,46.5c0-1.4-1.5-2.6-3.4-2.6c-1.9,0-3.4,1.1-3.4,2.6c0,1.4,1.5,2.6,3.4,2.6   C65.9,49,67.4,47.9,67.4,46.5" fill="#CC5C2B"/><path d="M59.3,38.2c0-0.9-0.8-1.7-1.7-1.7c-0.9,0-1.7,0.8-1.7,1.7c0,0.9,0.8,1.7,1.7,1.7   C58.5,39.9,59.3,39.1,59.3,38.2" fill="#EBF3E1"/><path d="M58.4,38.2c0-0.5-0.4-0.9-0.9-0.9c-0.5,0-0.9,0.4-0.9,0.9c0,0.5,0.4,0.9,0.9,0.9   C58.1,39,58.4,38.6,58.4,38.2" fill="#4B4F43"/><path d="M72.1,38.2c0-0.9-0.8-1.7-1.7-1.7s-1.7,0.8-1.7,1.7c0,0.9,0.8,1.7,1.7,1.7S72.1,39.1,72.1,38.2" fill="#EBF3E1"/><path d="M71.3,38.2c0-0.5-0.4-0.9-0.9-0.9c-0.5,0-0.9,0.4-0.9,0.9c0,0.5,0.4,0.9,0.9,0.9   C70.9,39,71.3,38.6,71.3,38.2" fill="#4B4F43"/><path d="M64,43.9V49c1.9,0,3.4-1.1,3.4-2.6C67.4,45.1,65.9,43.9,64,43.9" fill="#C0562E"/><path d="M70.4,36.5c-0.9,0-1.7,0.8-1.7,1.7c0,0.9,0.8,1.7,1.7,1.7s1.7-0.8,1.7-1.7C72.1,37.2,71.3,36.5,70.4,36.5    M70.4,39c-0.5,0-0.9-0.4-0.9-0.9c0-0.5,0.4-0.9,0.9-0.9c0.5,0,0.9,0.4,0.9,0.9C71.3,38.6,70.9,39,70.4,39z" fill="#E2DED3"/><path d="M70.4,37.3c-0.5,0-0.9,0.4-0.9,0.9c0,0.5,0.4,0.9,0.9,0.9c0.5,0,0.9-0.4,0.9-0.9   C71.3,37.7,70.9,37.3,70.4,37.3" fill="#484739"/></g></svg>