<?xml version="1.0" ?><!DOCTYPE svg  PUBLIC '-//W3C//DTD SVG 1.1 Tiny//EN'  'http://www.w3.org/Graphics/SVG/1.1/DTD/svg11-tiny.dtd'><svg baseProfile="tiny" height="128px" id="Layer_1" overflow="scroll" version="1.1" viewBox="0 0 128 128" width="128px" xml:space="preserve" xmlns="http://www.w3.org/2000/svg" xmlns:xlink="http://www.w3.org/1999/xlink"><g><path d="M99,87.4c-17.5,14.2-42.7,14.2-60.2,0v-40c17.5,14.2,42.7,14.2,60.2,0V87.4z" fill="#82D0DA"/><path d="M39.7,88.2c-0.3-0.2-0.6-0.5-0.9-0.8v-40c0.3,0.3,0.6,0.5,0.9,0.8V88.2z" fill="#7ACCCE"/><path d="M99,87.4c-0.3,0.3-0.6,0.5-1,0.8v-40c0.3-0.2,0.6-0.5,1-0.8V87.4z" fill="#7ACCCE"/><path d="M49.2,88.5c-0.2-0.1-0.4-0.3-0.5-0.5c-3.2-7-6.2-14.4-9.1-22.1c-0.1-0.3-0.1-0.5,0-0.6   c2.9-3.3,5.9-7,9.1-11.1c0.1-0.1,0.3-0.2,0.5-0.1c0.2,0.1,0.4,0.3,0.5,0.5c3.2,6.9,6.5,13.5,9.9,19.7c0.1,0.2,0.1,0.4,0,0.6   c-3.4,4.9-6.7,9.4-9.9,13.5C49.6,88.5,49.4,88.6,49.2,88.5" fill="#7ACCCE"/><path d="M69.1,92.7c-0.2,0-0.4-0.1-0.6-0.3c-3.4-5.5-6.9-11.5-10.2-17.7c-0.1-0.2-0.1-0.4,0-0.6   c3.4-4.8,6.8-9.9,10.2-15.4c0.1-0.2,0.3-0.3,0.6-0.3c0.2,0,0.4,0.1,0.6,0.3c3.4,5.5,6.8,10.6,10.2,15.3c0.1,0.2,0.1,0.4,0,0.6   c-3.4,6.3-6.8,12.3-10.2,17.9C69.6,92.6,69.4,92.7,69.1,92.7" fill="#7ACCCE"/><path d="M79.9,74.2c3.1,4.4,6.2,8.5,9.1,12.2c2.9-6.5,5.8-13.3,8.4-20.4c-2.7-3.1-5.5-6.6-8.4-10.3   C86.1,62.2,83.1,68.3,79.9,74.2 M89.1,88.2c-0.2,0.1-0.4,0.1-0.5-0.1c-3.2-4.1-6.5-8.5-9.9-13.4c-0.1-0.2-0.1-0.4,0-0.6   c3.4-6.2,6.7-12.8,9.9-19.8c0.1-0.2,0.3-0.4,0.5-0.5c0.2-0.1,0.4-0.1,0.5,0.1c3.2,4,6.2,7.7,9,10.9c0.1,0.1,0.1,0.3,0,0.6   c-2.8,7.8-5.9,15.2-9,22.2C89.5,87.9,89.3,88.1,89.1,88.2z" fill="#7ACCCE"/><path d="M40.7,66.3c2.7,7.1,5.5,13.9,8.5,20.3c3-3.8,6-7.9,9.1-12.3c-3.1-5.8-6.2-12-9.1-18.4   C46.2,59.7,43.4,63.2,40.7,66.3" fill="#7ACCCE"/><path d="M59.7,74.6c3.1,5.7,6.3,11.2,9.5,16.3c3.2-5.1,6.4-10.6,9.5-16.4c-3.1-4.5-6.3-9.3-9.5-14.4   C66,65.3,62.8,70.1,59.7,74.6" fill="#7ACCCE"/><path d="M40.7,66.3c2.7,7.1,5.5,13.9,8.5,20.3c3-3.8,6-7.9,9.1-12.3c-3.1-5.8-6.2-12-9.1-18.4   C46.2,59.7,43.4,63.2,40.7,66.3" fill="#F7B2B8"/><path d="M59.7,74.6c3.1,5.7,6.3,11.2,9.5,16.3c3.2-5.1,6.4-10.6,9.5-16.4c-3.1-4.5-6.3-9.3-9.5-14.4   C66,65.3,62.8,70.1,59.7,74.6" fill="#F7B2B8"/><path d="M79.9,74.2c3.1,4.4,6.2,8.5,9.1,12.2c2.9-6.5,5.8-13.3,8.4-20.4c-2.7-3.1-5.5-6.6-8.4-10.3   C86.1,62.2,83.1,68.3,79.9,74.2" fill="#F7B2B8"/><path d="M98.7,48.8c-17.4,14.3-42.3,14.3-59.7,0c-0.5-0.4-0.8-1.2-0.8-1.7v-4.8c0-0.5,0.4-0.7,0.8-0.3   c17.4,14.3,42.3,14.3,59.7,0c0.5-0.4,0.8-0.3,0.8,0.3v4.8C99.5,47.6,99.2,48.4,98.7,48.8" fill="#F7B2B8"/><path d="M98.7,87.6C81.3,102,56.4,102,39,87.6c-0.5-0.4-0.8-1.2-0.8-1.7v-4.8c0-0.5,0.4-0.7,0.8-0.3   c17.4,14.3,42.3,14.3,59.7,0c0.5-0.4,0.8-0.3,0.8,0.3v4.8C99.5,86.5,99.2,87.3,98.7,87.6" fill="#F7B2B8"/><path d="M98.3,83.9c-17.5,13.7-42.2,13.5-59.5-0.5c-0.2-0.2-0.4-0.6-0.4-0.8v-0.2c0-0.3,0.2-0.3,0.4-0.1   c17.3,14,42,14.1,59.5,0.5c0.2-0.2,0.4-0.1,0.4,0.1V83C98.7,83.3,98.5,83.7,98.3,83.9" fill="#82D0DA"/><path d="M68.9,31c-7.9,0-15.4,1.1-21,3.2c-5.3,2-8.3,4.6-8.3,7.2c0,2.6,3,5.2,8.3,7.2c5.6,2.1,13,3.2,21,3.2   c7.9,0,15.4-1.1,21-3.2c5.3-2,8.3-4.6,8.3-7.2c0-2.6-3-5.2-8.3-7.2C84.2,32.1,76.8,31,68.9,31 M68.9,53.2c-8.1,0-15.7-1.2-21.5-3.3   c-6-2.2-9.2-5.2-9.2-8.5c0-3.3,3.3-6.3,9.2-8.5c5.8-2.1,13.4-3.3,21.5-3.3c8.1,0,15.7,1.2,21.5,3.3c6,2.2,9.2,5.2,9.2,8.5   c0,3.3-3.3,6.3-9.2,8.5C84.6,52,77,53.2,68.9,53.2z" fill="#F7B2B8"/><path d="M98.1,41.4c0,6-13.1,12-29.3,12c-16.2,0-29.3-6-29.3-12c0-6,13.1-10.8,29.3-10.8   C85,30.6,98.1,35.4,98.1,41.4" fill="#EBF3E1"/><path d="M98,49.3c-2.5,2-5.2,3.7-8,5.1c2.8,3.5,5.5,6.8,8,9.7V49.3z M88.1,55.4c-5.7,2.6-11.7,3.9-17.8,4.1   c3,4.8,6.1,9.3,9,13.5C82.3,67.4,85.2,61.6,88.1,55.4z M98,67c-2.5,6.8-5.2,13.3-7.9,19.6c2.8-1.4,5.4-3.1,7.9-5.1V67z M79.3,75.7   c-3,5.6-6.1,10.9-9.1,15.9c6.1-0.2,12.2-1.5,17.9-4.1C85.2,83.9,82.3,79.9,79.3,75.7z M99,87.4C98.9,87.5,98.9,87.5,99,87.4   C98.9,87.5,98.9,87.5,99,87.4z M98.9,87.5C98.9,87.5,98.9,87.5,98.9,87.5C98.9,87.5,98.9,87.5,98.9,87.5z M98.8,87.5   C98.8,87.6,98.8,87.6,98.8,87.5C98.8,87.6,98.8,87.6,98.8,87.5z M98.8,87.6C98.8,87.6,98.7,87.6,98.8,87.6   C98.7,87.6,98.8,87.6,98.8,87.6z M98.7,87.6C98.7,87.6,98.7,87.7,98.7,87.6C98.7,87.7,98.7,87.6,98.7,87.6z M98.7,87.7   c-0.1,0.1-0.3,0.2-0.4,0.3c0,0,0,0,0,0C98.4,87.9,98.5,87.8,98.7,87.7z" fill="#80B5AE"/><path d="M99,48.5c-0.1,0.1-0.2,0.2-0.3,0.3c-0.2,0.2-0.5,0.4-0.7,0.6v14.8c0.2,0.2,0.4,0.4,0.6,0.7   c0.1,0.1,0.1,0.3,0,0.6c-0.2,0.5-0.4,1-0.6,1.6v14.5c0.2-0.2,0.5-0.4,0.7-0.6c0.1-0.1,0.2-0.1,0.3-0.2V48.5z M99,87.4   c-0.1,0.1-0.2,0.2-0.3,0.3c-0.1,0.1-0.3,0.2-0.4,0.3c0.1-0.1,0.3-0.2,0.4-0.3c0,0,0,0,0,0c0,0,0,0,0,0c0,0,0,0,0,0c0,0,0,0,0,0   c0,0,0,0,0,0c0,0,0,0,0,0c0,0,0,0,0,0c0,0,0,0,0,0c0,0,0,0,0,0C98.9,87.5,98.9,87.5,99,87.4L99,87.4z" fill="#71B8BC"/><path d="M70.3,59.5c-0.4,0-0.7,0-1.1,0v0.6c3.2,5.1,6.3,9.9,9.4,14.3c0-0.1,0-0.2,0.1-0.3c0.2-0.4,0.4-0.8,0.6-1.1   C76.3,68.8,73.3,64.3,70.3,59.5 M78.6,74.6c-3.1,5.7-6.3,11.2-9.4,16.3v0.8c0.3,0,0.7,0,1,0c3.1-5,6.1-10.3,9.1-15.9   c-0.2-0.3-0.4-0.6-0.6-0.9C78.6,74.7,78.6,74.7,78.6,74.6z" fill="#71B8BC"/><path d="M90,54.5c-0.6,0.3-1.3,0.6-1.9,0.9c-2.8,6.2-5.8,12.1-8.8,17.7c-0.2,0.4-0.4,0.8-0.6,1.1   c0,0.1-0.1,0.2-0.1,0.3c0,0,0,0,0,0.1c0,0,0,0,0,0.1c0,0.1,0,0.2,0.1,0.2c0.2,0.3,0.4,0.6,0.6,0.9c3,4.2,5.9,8.2,8.7,11.9   c0.7-0.3,1.4-0.6,2-1c2.8-6.2,5.4-12.8,7.9-19.6c0.2-0.5,0.4-1,0.6-1.6c0.1-0.3,0.1-0.5,0-0.6c-0.2-0.2-0.4-0.4-0.6-0.7   C95.5,61.2,92.8,58,90,54.5 M79.9,74.2L79.9,74.2c3.1-5.9,6.2-12,9.1-18.5c2.9,3.8,5.8,7.2,8.4,10.3c-2.7,7.1-5.5,13.9-8.4,20.4   C86.1,82.7,83.1,78.6,79.9,74.2z" fill="#71B8BC"/><path d="M69.2,60.1v30.7c3.2-5.1,6.3-10.6,9.5-16.4c0,0,0,0,0-0.1C75.5,70,72.3,65.2,69.2,60.1" fill="#F496A7"/><path d="M89.1,55.7c-2.9,6.5-6,12.7-9.1,18.5c3.1,4.4,6.2,8.5,9.1,12.2c2.9-6.5,5.8-13.3,8.4-20.4   C94.8,62.9,92,59.4,89.1,55.7" fill="#F496A7"/><path d="M99.5,42.1c-0.4,3-3.7,5.7-9.2,7.8c-2.7,1-5.9,1.8-9.3,2.4c-3.6,0.7-7.6,1.2-11.9,1.2v6.1   c0.4,0,0.7,0,1.1,0c6.1-0.2,12.1-1.6,17.8-4.1c0.6-0.3,1.3-0.6,1.9-0.9c2.8-1.4,5.5-3.1,8-5.1c0.2-0.2,0.5-0.4,0.7-0.6   c0.1-0.1,0.2-0.2,0.3-0.3c0.3-0.4,0.6-1,0.6-1.4v-4.8C99.5,42.2,99.5,42.2,99.5,42.1" fill="#F496A7"/><path d="M99.2,80.7c-0.1,0-0.2,0-0.2,0.1c-0.1,0-0.2,0.1-0.3,0.2c-0.2,0.2-0.5,0.4-0.7,0.6c-2.5,2-5.2,3.7-7.9,5.1   c-0.7,0.3-1.3,0.7-2,1c-5.7,2.6-11.8,3.9-17.9,4.1c-0.3,0-0.7,0-1,0v1.2c10.3-0.1,20.6-3.4,29.1-10.1c0.1-0.1,0.2-0.1,0.2-0.1   c0.1,0,0.2,0.1,0.2,0.3V83c0,0.3-0.2,0.6-0.4,0.8C89.7,90.6,79.5,93.9,69.2,94v4.4c10.3-0.1,20.6-3.5,29.1-10.4c0,0,0,0,0,0   c0.1-0.1,0.3-0.2,0.4-0.3c0.1-0.1,0.2-0.2,0.3-0.3c0.3-0.4,0.6-1,0.6-1.4v-4.8C99.5,80.8,99.4,80.7,99.2,80.7" fill="#F496A7"/><path d="M98.5,82.6c-0.1,0-0.2,0-0.2,0.1c-8.6,6.7-18.8,10.1-29.1,10.1V94c10.3-0.1,20.6-3.4,29.1-10.1   c0.2-0.2,0.4-0.6,0.4-0.8v-0.2C98.7,82.7,98.6,82.6,98.5,82.6" fill="#80B5AE"/><path d="M69.2,29.6v1c16,0.1,29,4.9,29,10.8c0,4.4-7,8.8-17.1,10.8c3.4-0.6,6.6-1.3,9.3-2.4c5.5-2,8.7-4.8,9.2-7.8   c0-0.2,0-0.5,0-0.7c0-3.3-3.3-6.3-9.2-8.5C84.6,30.8,77.1,29.6,69.2,29.6" fill="#F496A7"/><path d="M69.2,30.6v22.8c4.2,0,8.2-0.5,11.9-1.2c10.1-2.1,17.1-6.5,17.1-10.8C98.1,35.5,85.2,30.6,69.2,30.6" fill="#E2DED3"/><path d="M52.4,31c-2.2-0.8-4.7,0.4-5.5,2.6c-0.6,1.7-0.1,3.6,1.2,4.7l-19.5,52c-0.5,1.2,0.2,2.5,1.4,3l0,0   c1.2,0.4,2.5-0.2,3-1.4l18.2-52.5c1.7-0.1,3.3-1.1,3.9-2.8C55.8,34.3,54.6,31.8,52.4,31z" fill="#F27550"/><path d="M51,33.5c0.3-0.7-0.1-1.5-0.8-1.8c-0.7-0.3-1.5,0.1-1.7,0.8c-0.3,0.7,0.1,1.5,0.8,1.8   C49.9,34.6,50.7,34.2,51,33.5" fill="#F7A180"/><path d="M52.4,31L52.4,31C52.4,31,52.4,31,52.4,31l-3,8.1L30.1,93.3c1.2,0.4,2.5-0.3,2.9-1.5l18.2-52.5   c1.7-0.1,3.3-1.1,3.9-2.8C55.8,34.3,54.6,31.8,52.4,31z" fill="#E16A47"/></g></svg>