<?xml version="1.0" ?><!DOCTYPE svg  PUBLIC '-//W3C//DTD SVG 1.1 Tiny//EN'  'http://www.w3.org/Graphics/SVG/1.1/DTD/svg11-tiny.dtd'><svg baseProfile="tiny" height="128px" id="Layer_1" version="1.1" viewBox="0 0 128 128" width="128px" xml:space="preserve" xmlns="http://www.w3.org/2000/svg" xmlns:xlink="http://www.w3.org/1999/xlink"><g><path d="M65.8,20h-3.5c-12.2,0-21.9,10.1-21.4,22.3l1.5,45.1c0.5,11.5,9.9,20.6,21.4,20.6h0.4   c11.5,0,21-9.1,21.4-20.6l1.6-45.1C87.7,30.1,77.9,20,65.8,20z" fill="#F7B2B8"/><polygon fill="#E1D7CF" points="42,77.2 86.4,64.1 86.5,62.7 42,75.8  "/><polygon fill="#E1D7CF" points="41.5,60.7 70.5,68.7 70.9,67.4 41.4,59.3  "/><path d="M79.4,40.4c0,8.5-6.9,15.5-15.4,15.5S48.5,49,48.5,40.4C48.5,31.9,55.5,25,64,25S79.4,31.9,79.4,40.4" fill="#FDEDE8"/><path d="M64,25c-5.8,0-10.8,3.1-13.4,7.8c1.3,0.5,2.7,0.7,4.1,0.7c5.3,0,9.8-3.6,11.2-8.4C65.3,25,64.6,25,64,25" fill="#D78257"/><path d="M64.4,25c2,3.7,5.8,6.1,10.3,6.1c0.5,0,1.1,0,1.6-0.1C73.5,27.4,69.2,25.1,64.4,25" fill="#F3D04C"/><path d="M73.4,38.6c-1.9,0-3.5,1.6-3.5,3.5c0,1.9,1.6,3.5,3.5,3.5c2,0,3.5-1.6,3.5-3.5   C76.9,40.2,75.3,38.6,73.4,38.6" fill="#FCDDDA"/><path d="M54.6,38.6c-2,0-3.5,1.6-3.5,3.5c0,1.9,1.6,3.5,3.5,3.5c2,0,3.5-1.6,3.5-3.5C58.1,40.2,56.6,38.6,54.6,38.6   " fill="#FCDDDA"/><path d="M59.2,38c-1.7,0-3-1-3-2.1c0-0.1,0.1-0.3,0.3-0.3c0.1,0,0.3,0.1,0.3,0.3c0,0.9,1.1,1.6,2.5,1.6   c1.3,0,2.5-0.7,2.5-1.6c0-0.1,0.1-0.3,0.3-0.3c0.2,0,0.3,0.1,0.3,0.3C62.2,37,60.9,38,59.2,38" fill="#D3AAA1"/><path d="M68.8,38c-1.7,0-3-1-3-2.1c0-0.1,0.1-0.3,0.3-0.3c0.1,0,0.3,0.1,0.3,0.3c0,0.9,1.1,1.6,2.5,1.6   c1.3,0,2.5-0.7,2.5-1.6c0-0.1,0.1-0.3,0.3-0.3c0.1,0,0.3,0.1,0.3,0.3C71.8,37,70.4,38,68.8,38" fill="#7ACCCE"/><path d="M65.3,48.4c0-0.7-0.6-1.3-1.3-1.3c-0.7,0-1.3,0.6-1.3,1.3c0,0.7,0.6,1.3,1.3,1.3   C64.7,49.7,65.3,49.1,65.3,48.4" fill="#F38786"/><g><polygon fill="#F496A7" points="64.1,66.9 64.1,69.3 68.2,68.1   "/><path d="M64.1,108h0.1c11.5,0,21-9.1,21.4-20.6l0.8-23.3l-22.3,6.6V108z" fill="#F496A7"/><path d="M65.8,20h-1.7v5c8.5,0.1,15.3,6.9,15.3,15.5c0,8.5-6.9,15.4-15.3,15.5v9.7l6.5,1.8l15.9-4.7l0.7-20.4    C87.7,30.1,77.9,20,65.8,20z" fill="#F496A7"/><polygon fill="#F496A7" points="86.4,63.5 86.5,62.7 86.5,62.7   "/></g><polygon fill="#D7CBC0" points="86.5,62.7 70.6,67.3 70.9,67.4 70.5,68.7 68.2,68.1 64.1,69.3 64.1,70.7 86.4,64.1 86.4,63.5  "/><polygon fill="#D7CBC0" points="64.1,65.6 64.1,66.9 68.2,68.1 70.5,68.7 70.9,67.4 70.6,67.3  "/><path d="M64.1,25L64.1,25c0.1,0,0.2,0,0.3,0c4.8,0.1,9.1,2.5,11.8,6c-0.5,0.1-1,0.1-1.6,0.1c-3.8,0-7.2-1.8-9.3-4.6   c-0.3,0.8-0.8,1.6-1.3,2.3v18.3c0.7,0,1.2,0.6,1.2,1.3c0,0.7-0.5,1.2-1.2,1.3v6.2c8.5-0.1,15.3-7,15.3-15.5   C79.4,31.9,72.6,25,64.1,25 M68.8,37.5c1.3,0,2.5-0.7,2.5-1.6c0-0.1,0.1-0.3,0.3-0.3c0.1,0,0.3,0.1,0.3,0.3c0,1.2-1.3,2.1-3,2.1   c-1.7,0-3-1-3-2.1c0-0.1,0.1-0.3,0.3-0.3c0.1,0,0.3,0.1,0.3,0.3C66.3,36.7,67.5,37.5,68.8,37.5z M73.4,45.7c-1.9,0-3.5-1.6-3.5-3.5   c0-1.9,1.6-3.5,3.5-3.5c2,0,3.5,1.6,3.5,3.5C76.9,44.1,75.3,45.7,73.4,45.7z" fill="#E8CCB7"/><path d="M64.1,25v3.8c0.5-0.7,0.9-1.5,1.3-2.3c-0.4-0.5-0.7-1-1-1.5C64.3,25,64.2,25,64.1,25" fill="#CC5C2B"/><path d="M64.4,25L64.4,25c0.3,0.5,0.6,1.1,1,1.5c2.1,2.8,5.5,4.6,9.3,4.6c0.5,0,1.1,0,1.6-0.1   C73.5,27.4,69.2,25.1,64.4,25" fill="#CC5C2B"/><path d="M73.4,38.6c-1.9,0-3.5,1.6-3.5,3.5c0,1.9,1.6,3.5,3.5,3.5c2,0,3.5-1.6,3.5-3.5   C76.9,40.2,75.3,38.6,73.4,38.6" fill="#E6BFAE"/><path d="M71.5,35.6c-0.2,0-0.3,0.1-0.3,0.3c0,0.9-1.1,1.6-2.5,1.6c-1.3,0-2.5-0.7-2.5-1.6c0-0.1-0.1-0.3-0.3-0.3   c-0.1,0-0.3,0.1-0.3,0.3c0,1.2,1.3,2.1,3,2.1c1.7,0,3-1,3-2.1C71.8,35.7,71.7,35.6,71.5,35.6" fill="#D3AAA1"/><path d="M64.1,47.1v2.6c0.7-0.1,1.2-0.6,1.2-1.3C65.3,47.7,64.8,47.1,64.1,47.1" fill="#E17A71"/></g></svg>