<?xml version="1.0" ?><!DOCTYPE svg  PUBLIC '-//W3C//DTD SVG 1.1 Tiny//EN'  'http://www.w3.org/Graphics/SVG/1.1/DTD/svg11-tiny.dtd'><svg baseProfile="tiny" height="128px" id="Layer_1" overflow="scroll" version="1.1" viewBox="0 0 128 128" width="128px" xml:space="preserve" xmlns="http://www.w3.org/2000/svg" xmlns:xlink="http://www.w3.org/1999/xlink"><g><path d="M55.5,62.8c-0.7,1.2-2.4,1.7-4.6,1.7c-2.2,0-5-0.5-7.7-1.7c-2.8-1.2-4.9-3-6.1-5.2   c-1.2-2.1-1.3-4.5-0.1-6.4c1.2-1.9,3.4-2.9,5.8-2.8c2.4,0.1,5,1.2,7.4,3.2C54.6,55.6,56.8,60.5,55.5,62.8" fill="#F7B2B8"/><path d="M56.3,70c-0.6,1.6-2.7,2.5-5.6,3.1c-2.9,0.5-6.8,0.7-10.9,0c-4-0.8-7.5-2.6-9.7-5.2c-2.1-2.6-2.9-6-1.6-9.1   c1.2-3.1,4.1-5,7.5-5.4c3.4-0.4,7.1,0.7,10.6,3c3.5,2.3,6.1,5.1,7.8,7.5C56.2,66.3,57,68.4,56.3,70" fill="#F496A7"/><path d="M50.6,74.8c-0.6,2.6-5.6,4.6-11.6,4.4c-3-0.2-5.7-1.2-7.5-2.8c-1.8-1.6-2.7-3.8-2.3-6   c0.5-2.2,2.2-3.9,4.5-4.6c2.3-0.7,5.2-0.6,8,0.5c2.8,1,5.2,2.6,6.7,4.1C50.1,71.9,50.9,73.4,50.6,74.8" fill="#F7B2B8"/><path d="M77.5,75c-0.3-1.4,0.5-2.9,2-4.5c1.6-1.6,3.8-3.2,6.7-4.3c2.8-1.1,5.7-1.3,8-0.6c2.3,0.7,4.1,2.3,4.6,4.5   c0.5,2.2-0.4,4.5-2.1,6.1c-1.8,1.7-4.4,2.7-7.4,2.9C83.2,79.4,78.1,77.6,77.5,75" fill="#F7B2B8"/><path d="M71.8,70.5c-0.7-1.6,0.1-3.7,1.8-6.2c1.7-2.5,4.3-5.3,7.7-7.6c3.4-2.3,7.2-3.5,10.5-3.1   c3.3,0.3,6.3,2.2,7.6,5.3c1.3,3,0.6,6.5-1.5,9.1c-2.1,2.7-5.6,4.5-9.6,5.4c-4.1,0.9-7.9,0.7-10.9,0.2C74.5,73,72.5,72.1,71.8,70.5" fill="#F496A7"/><path d="M72.4,63.1c-1.4-2.3,0.7-7.2,5.1-11.3c2.3-2,4.9-3.2,7.3-3.3c2.4-0.2,4.7,0.8,5.9,2.7   c1.2,1.9,1.2,4.3,0.1,6.4c-1.1,2.2-3.3,4-6,5.3c-2.7,1.3-5.5,1.8-7.7,1.8C74.9,64.7,73.2,64.3,72.4,63.1" fill="#F7B2B8"/><path d="M54.9,52c5.9,2,12.2,2,18.1,0c5.9,17.2,11.8,34.4,17.7,51.6c-17.3,5.9-36.1,5.9-53.4,0   C43.2,86.4,49.1,69.2,54.9,52" fill="#7ACCCE"/><path d="M81.4,37.4c0,9.6-7.8,17.5-17.5,17.5c-9.6,0-17.5-7.8-17.5-17.5c0-9.6,7.8-17.5,17.5-17.5   C73.6,19.9,81.4,27.7,81.4,37.4" fill="#FDEDE8"/><path d="M46.5,37.4c0,0.3,0,0.5,0,0.8c0,0,0,0,0,0c9.6,0,17.5-7.8,17.5-17.5c0-0.3,0-0.5,0-0.8c0,0,0,0,0,0   C54.3,19.9,46.5,27.7,46.5,37.4" fill="#F1D27A"/><path d="M64,19.9C64,19.9,64,19.9,64,19.9c0,0.3,0,0.5,0,0.8c0,9.6,7.8,17.5,17.5,17.5c0,0,0,0,0,0   c0-0.3,0-0.5,0-0.8C81.4,27.7,73.6,19.9,64,19.9" fill="#F1D27A"/><path d="M60.9,39.6c0-0.6-0.5-1.1-1.1-1.1c-0.6,0-1.1,0.5-1.1,1.1c0,0.6,0.5,1.1,1.1,1.1   C60.4,40.8,60.9,40.3,60.9,39.6" fill="#4B4F43"/><path d="M69.4,39.6c0-0.6-0.5-1.1-1.1-1.1c-0.6,0-1.1,0.5-1.1,1.1c0,0.6,0.5,1.1,1.1,1.1   C68.9,40.8,69.4,40.3,69.4,39.6" fill="#4B4F43"/><path d="M64,77.3c-1,0-1.8,0.8-1.8,1.8c0,1,0.8,1.8,1.8,1.8c1,0,1.8-0.8,1.8-1.8C65.8,78.1,65,77.3,64,77.3" fill="#EBF3E1"/><path d="M64,63.9c-1,0-1.8,0.8-1.8,1.8c0,1,0.8,1.8,1.8,1.8c1,0,1.8-0.8,1.8-1.8C65.8,64.7,65,63.9,64,63.9" fill="#EBF3E1"/><path d="M73.1,52.3c-2.7,1.6-5.8,2.6-9.1,2.6v9c1,0,1.8,0.8,1.8,1.8c0,1-0.8,1.8-1.8,1.8v9.8c1,0,1.8,0.8,1.8,1.8   c0,1-0.8,1.8-1.8,1.8v27.2c9,0,18.1-1.5,26.7-4.4c-2.9-8.4-5.8-16.9-8.7-25.3c-0.5-1.5-1-3-1.5-4.5c-1-3.1-2.1-6.1-3.1-9.2   c-1-3-2.1-6.1-3.1-9.1C73.9,54.5,73.5,53.4,73.1,52.3" fill="#71B8BC"/><path d="M64,22.1v32.8c3.3,0,6.5-0.9,9.1-2.6c5-3.1,8.3-8.6,8.3-14.9c0,0.3,0,0.5,0,0.8c0,0,0,0,0,0   C72.2,38.2,64.7,31.1,64,22.1 M68.2,40.8c-0.6,0-1.1-0.5-1.1-1.1c0-0.6,0.5-1.1,1.1-1.1c0.6,0,1.1,0.5,1.1,1.1   C69.4,40.3,68.9,40.8,68.2,40.8z" fill="#E8CCB7"/><path d="M64,19.9v2.1c0.7,9,8.2,16.1,17.4,16.1c0,0,0,0,0,0c0-0.3,0-0.5,0-0.8C81.4,27.7,73.6,19.9,64,19.9" fill="#DEB867"/><path d="M68.2,38.5c-0.6,0-1.1,0.5-1.1,1.1c0,0.6,0.5,1.1,1.1,1.1c0.6,0,1.1-0.5,1.1-1.1   C69.4,39,68.9,38.5,68.2,38.5" fill="#484739"/><path d="M64,77.3v3.6c1,0,1.8-0.8,1.8-1.8C65.8,78.1,65,77.3,64,77.3" fill="#E2DED3"/><path d="M64,63.9v3.6c1,0,1.8-0.8,1.8-1.8C65.8,64.7,65,63.9,64,63.9" fill="#E2DED3"/></g></svg>